<?xml version="1.0" encoding="utf-8"?>
<svg xmlns="http://www.w3.org/2000/svg" viewBox="0 0 300 345" width="300px" height="345px">
  <path d="M 0 0 C 99.002 0 198.002 0 300.002 0 C 300.002 113.851 300.002 227.701 300.002 345.001 C 201.002 345.001 102.002 345.001 0 345.001 C 0 231.151 0 117.301 0 0 Z" style="stroke-width: 1; fill: none; fill-opacity: 0;" id="object-0"/>
  <path d="M 32.002 83.001 C 51.631 82.934 71.259 82.878 90.887 82.846 C 100.002 82.83 109.117 82.809 118.231 82.775 C 126.179 82.745 134.127 82.726 142.074 82.719 C 146.28 82.715 150.485 82.706 154.69 82.684 C 158.655 82.664 162.62 82.658 166.585 82.662 C 168.033 82.661 169.482 82.655 170.93 82.644 C 186.025 82.529 200.388 85.49 211.815 96.064 C 221.662 106.61 224.505 117.385 224.28 131.302 C 223.876 141.254 220.734 149.677 214.002 157.001 C 213.404 157.69 212.806 158.378 212.19 159.087 C 205.504 166.339 196.522 171.452 186.53 172.182 C 183.568 172.247 180.613 172.249 177.651 172.228 C 176.51 172.229 175.37 172.229 174.194 172.229 C 170.517 172.228 166.84 172.212 163.163 172.197 C 160.886 172.194 158.61 172.192 156.333 172.191 C 147.91 172.18 139.488 172.152 131.065 172.126 C 112.234 172.085 93.404 172.044 74.002 172.001 C 74.002 218.861 74.002 265.721 74.002 314.001 C 60.472 314.001 46.942 314.001 33.002 314.001 C 33.002 254.271 33.002 194.541 33.002 133.001 C 82.502 132.671 132.002 132.341 183.002 132.001 C 183.002 129.361 183.002 126.721 183.002 124.001 C 108.257 123.506 108.257 123.506 32.002 123.001 C 32.002 109.801 32.002 96.601 32.002 83.001 Z" style="stroke-width: 1; fill: rgb(255, 255, 255);"/>
  <path d="M 224.815 159.001 C 233.556 146.018 236.25 130.767 233.319 115.423 C 228.804 99.613 219.277 87.821 205.084 79.626 C 196.996 75.362 189.425 73.895 180.276 73.843 C 178.305 73.828 178.305 73.828 176.295 73.813 C 174.856 73.808 173.418 73.802 171.979 73.796 C 170.451 73.786 168.923 73.776 167.395 73.766 C 163.261 73.739 159.127 73.718 154.994 73.698 C 150.668 73.676 146.343 73.649 142.017 73.622 C 133.833 73.572 125.648 73.527 117.464 73.484 C 108.144 73.434 98.823 73.38 89.503 73.324 C 70.336 73.211 51.169 73.104 32.002 73.001 C 32.002 59.801 32.002 46.601 32.002 33 C 52.145 32.91 72.286 32.84 92.429 32.79 C 101.783 32.77 111.137 32.75 120.491 32.7 C 128.653 32.66 136.815 32.63 144.977 32.63 C 149.29 32.62 153.604 32.61 157.918 32.58 C 200.112 32.3 200.112 32.3 217.502 40.814 C 218.244 41.162 218.985 41.511 219.749 41.87 C 244.177 53.587 261.437 72.216 271.311 97.329 C 278.954 119.167 278.381 144.082 268.725 165.255 C 264.456 173.945 259.47 181.77 253.002 189.001 C 252.239 190.012 251.476 191.023 250.69 192.064 C 243.434 199.995 234.603 206.209 225.002 211.001 C 224.342 211.001 223.682 211.001 223.002 211.001 C 229.355 224.062 236.237 236.823 243.156 249.59 C 246.114 255.055 249.058 260.529 252.002 266.001 C 253.156 268.143 254.31 270.285 255.463 272.427 C 257.605 276.405 259.746 280.383 261.884 284.363 C 262.845 286.152 263.806 287.941 264.768 289.73 C 265.974 291.974 267.18 294.219 268.385 296.464 C 270.671 300.715 272.955 304.954 275.401 309.115 C 277.002 312.001 277.002 312.001 277.002 314.001 C 270.989 314.249 264.978 314.43 258.96 314.551 C 256.915 314.601 254.871 314.669 252.827 314.756 C 235.927 315.454 235.927 315.454 231.507 312.118 C 229.897 309.464 228.961 306.949 228.002 304.001 C 227.057 302.212 226.076 300.441 225.065 298.689 C 224.042 296.794 223.021 294.898 222.002 293.001 C 221.445 291.967 220.887 290.933 220.313 289.868 C 218.54 286.58 216.771 283.291 215.002 280.001 C 213.848 277.858 212.693 275.715 211.538 273.572 C 206.837 264.849 202.137 256.125 197.463 247.388 C 191.858 236.923 186.195 226.503 180.315 216.189 C 175.972 208.57 171.761 200.895 167.69 193.126 C 167.215 192.222 166.741 191.317 166.252 190.385 C 163.002 184.135 163.002 184.135 163.002 183.001 C 163.686 182.992 164.37 182.983 165.075 182.973 C 192.231 182.636 192.807 182.629 214.753 169.647 L 224.815 159.001" style="stroke-width: 1; stroke-linejoin: round; fill: rgb(255, 255, 255);"/>
  <path d="M 127.377 221.001 C 126.924 221.001 126.468 221.001 126.002 221.001 C 126.002 251.691 126.002 282.381 126.002 314.001 C 112.472 314.001 98.942 314.001 85.002 314.001 C 85.002 270.771 85.002 227.541 85.002 183.001 C 106.782 183.001 128.562 183.001 151.002 183.001 C 156.027 191.794 160.984 200.575 165.752 209.501 C 166.977 211.785 168.202 214.069 169.428 216.353 C 170.031 217.476 170.634 218.599 171.255 219.756 C 173.796 224.474 176.366 229.176 178.94 233.876 C 183.508 242.226 188.015 250.608 192.502 259.001 C 199.895 272.828 207.329 286.633 214.967 300.326 C 215.437 301.167 215.906 302.009 216.39 302.876 C 217.277 304.463 218.166 306.05 219.058 307.635 C 222.002 312.893 222.002 312.893 222.002 314.001 C 207.482 314.001 192.962 314.001 178.002 314.001 C 170.205 299.911 162.415 285.824 154.815 271.626 C 149.811 262.283 144.668 253.031 139.433 243.816 C 136.484 238.625 133.544 233.432 130.69 228.189" style="paint-order: fill; fill-rule: nonzero; fill: rgb(255, 255, 255); stroke-width: 1;"/>
</svg>