<?xml version="1.0" encoding="utf-8"?>
<svg xmlns="http://www.w3.org/2000/svg" viewBox="0 0 300 345" width="300px" height="345px">
  <path d="M 0 0 C 99 0 198 0 300 0 C 300 113.85 300 227.7 300 345 C 201 345 102 345 0 345 C 0 231.15 0 117.3 0 0 Z" style="stroke-width: 1; fill: none; fill-opacity: 0;" id="object-0"/>
  <path d="M 32 83 C 51.629 82.933 71.257 82.877 90.885 82.845 C 100 82.829 109.115 82.808 118.229 82.774 C 126.177 82.744 134.125 82.725 142.072 82.718 C 146.278 82.714 150.483 82.705 154.688 82.683 C 158.653 82.663 162.618 82.657 166.583 82.661 C 168.031 82.66 169.48 82.654 170.928 82.643 C 186.023 82.528 200.386 85.489 211.813 96.063 C 221.66 106.609 224.503 117.384 224.278 131.301 C 223.874 141.253 220.732 149.676 214 157 C 213.402 157.689 212.804 158.377 212.188 159.086 C 205.502 166.338 196.52 171.451 186.528 172.181 C 183.566 172.246 180.611 172.248 177.649 172.227 C 176.508 172.228 175.368 172.228 174.192 172.228 C 170.515 172.227 166.838 172.211 163.161 172.196 C 160.884 172.193 158.608 172.191 156.331 172.19 C 147.908 172.179 139.486 172.151 131.063 172.125 C 112.232 172.084 93.402 172.043 74 172 C 74 218.86 74 265.72 74 314 C 60.47 314 46.94 314 33 314 C 33 254.27 33 194.54 33 133 C 82.5 132.67 132 132.34 183 132 C 183 129.36 183 126.72 183 124 C 108.255 123.505 108.255 123.505 32 123 C 32 109.8 32 96.6 32 83 Z" style="stroke-width: 1;"/>
  <path d="M 224.813 159 C 233.554 146.017 236.248 130.766 233.317 115.422 C 228.802 99.612 219.275 87.82 205.082 79.625 C 196.994 75.361 189.423 73.894 180.274 73.842 C 178.303 73.827 178.303 73.827 176.293 73.812 C 174.854 73.807 173.416 73.801 171.977 73.795 C 170.449 73.785 168.921 73.775 167.393 73.765 C 163.259 73.738 159.125 73.717 154.992 73.697 C 150.666 73.675 146.341 73.648 142.015 73.621 C 133.831 73.571 125.646 73.526 117.462 73.483 C 108.142 73.433 98.821 73.379 89.501 73.323 C 70.334 73.21 51.167 73.103 32 73 C 32 59.8 32 46.6 32 33 C 52.143 32.91 72.284 32.836 92.427 32.793 C 101.781 32.773 111.135 32.745 120.489 32.699 C 128.651 32.658 136.813 32.633 144.975 32.624 C 149.288 32.619 153.602 32.607 157.916 32.577 C 200.11 32.301 200.11 32.301 217.5 40.813 C 218.242 41.161 218.983 41.51 219.747 41.869 C 244.175 53.586 261.435 72.215 271.309 97.328 C 278.952 119.166 278.379 144.081 268.723 165.254 C 264.454 173.944 259.468 181.769 253 189 C 252.237 190.011 251.474 191.022 250.688 192.063 C 243.432 199.994 234.601 206.208 225 211 C 224.34 211 223.68 211 223 211 C 229.353 224.061 236.235 236.822 243.154 249.589 C 246.112 255.054 249.056 260.528 252 266 C 253.154 268.142 254.308 270.284 255.461 272.426 C 257.603 276.404 259.744 280.382 261.882 284.362 C 262.843 286.151 263.804 287.94 264.766 289.729 C 265.972 291.973 267.178 294.218 268.383 296.463 C 270.669 300.714 272.953 304.953 275.399 309.114 C 277 312 277 312 277 314 C 270.987 314.248 264.976 314.429 258.958 314.55 C 256.913 314.6 254.869 314.668 252.825 314.755 C 235.925 315.453 235.925 315.453 231.505 312.117 C 229.895 309.463 228.959 306.948 228 304 C 227.055 302.211 226.074 300.44 225.063 298.688 C 224.04 296.793 223.019 294.897 222 293 C 221.443 291.966 220.885 290.932 220.311 289.867 C 218.538 286.579 216.769 283.29 215 280 C 213.846 277.857 212.691 275.714 211.536 273.571 C 206.835 264.848 202.135 256.124 197.461 247.387 C 191.856 236.922 186.193 226.502 180.313 216.188 C 175.97 208.569 171.759 200.894 167.688 193.125 C 167.213 192.221 166.739 191.316 166.25 190.384 C 163 184.134 163 184.134 163 183 C 163.684 182.991 164.368 182.982 165.073 182.972 C 192.229 182.635 192.805 182.628 214.751 169.646 L 224.813 159" style="stroke-width: 1; stroke-linejoin: round;"/>
  <path d="M 127.375 221 C 126.922 221 126.466 221 126 221 C 126 251.69 126 282.38 126 314 C 112.47 314 98.94 314 85 314 C 85 270.77 85 227.54 85 183 C 106.78 183 128.56 183 151 183 C 156.025 191.793 160.982 200.574 165.75 209.5 C 166.975 211.784 168.2 214.068 169.426 216.352 C 170.029 217.475 170.632 218.598 171.253 219.755 C 173.794 224.473 176.364 229.175 178.938 233.875 C 183.506 242.225 188.013 250.607 192.5 259 C 199.893 272.827 207.327 286.632 214.965 300.325 C 215.435 301.166 215.904 302.008 216.388 302.875 C 217.275 304.462 218.164 306.049 219.056 307.634 C 222 312.892 222 312.892 222 314 C 207.48 314 192.96 314 178 314 C 170.203 299.91 162.413 285.823 154.813 271.625 C 149.809 262.282 144.666 253.03 139.431 243.815 C 136.482 238.624 133.542 233.431 130.688 228.188" style="paint-order: fill; fill-rule: nonzero;"/>
</svg>